<?xml version="1.0" standalone="yes"?>

<svg version="1.1" viewBox="0.0 0.0 720.0 540.0" fill="none" stroke="none" stroke-linecap="square" stroke-miterlimit="10" xmlns="http://www.w3.org/2000/svg" xmlns:xlink="http://www.w3.org/1999/xlink"><clipPath id="p.0"><path d="m0 0l720.0 0l0 540.0l-720.0 0l0 -540.0z" clip-rule="nonzero"></path></clipPath><g clip-path="url(#p.0)"><path fill="#000000" fill-opacity="0.0" d="m0 0l720.0 0l0 540.0l-720.0 0z" fill-rule="nonzero"></path><path fill="#cfe2f3" d="m136.0 67.480316l221.98425 0l0 122.01575l-221.98425 0z" fill-rule="nonzero"></path><path stroke="#000000" stroke-width="1.0" stroke-linejoin="round" stroke-linecap="butt" d="m136.0 67.480316l221.98425 0l0 122.01575l-221.98425 0z" fill-rule="nonzero"></path><path fill="#fff2cc" d="m365.0 190.48819l0 -124.0l153.00787 124.0z" fill-rule="nonzero"></path><path stroke="#000000" stroke-width="1.0" stroke-linejoin="round" stroke-linecap="butt" d="m365.0 190.48819l0 -124.0l153.00787 124.0z" fill-rule="nonzero"></path><path fill="#f4cccc" d="m142.0 270.0l0 0c0 -41.147385 35.5916 -74.50394 79.49606 -74.50394l0 0c43.90445 0 79.49606 33.356552 79.49606 74.50394l0 0c0 41.1474 -35.591614 74.50394 -79.49606 74.50394l0 0c-43.904465 0 -79.49606 -33.356537 -79.49606 -74.50394z" fill-rule="nonzero"></path><path stroke="#000000" stroke-width="1.0" stroke-linejoin="round" stroke-linecap="butt" d="m142.0 270.0l0 0c0 -41.147385 35.5916 -74.50394 79.49606 -74.50394l0 0c43.90445 0 79.49606 33.356552 79.49606 74.50394l0 0c0 41.1474 -35.591614 74.50394 -79.49606 74.50394l0 0c-43.904465 0 -79.49606 -33.356537 -79.49606 -74.50394z" fill-rule="nonzero"></path><path fill="#d9ead3" d="m285.99213 195.49475l193.0 0l-38.600006 131.0l-115.79999 0z" fill-rule="nonzero"></path><path stroke="#000000" stroke-width="1.0" stroke-linejoin="round" stroke-linecap="butt" d="m285.99213 195.49475l193.0 0l-38.600006 131.0l-115.79999 0z" fill-rule="nonzero"></path></g></svg>

